<svg width="20" height="20" viewBox="0 0 20 20" fill="none" xmlns="http://www.w3.org/2000/svg">
<g opacity="0.5">
<path d="M19.6576 3.57727C19.4756 1.87164 18.1285 0.524292 16.4227 0.342407C12.1451 -0.114136 7.85492 -0.114136 3.57742 0.342407C1.87164 0.524445 0.524445 1.87164 0.342407 3.57727C-0.114136 7.85477 -0.114136 12.1451 0.342407 16.4226C0.524445 18.1284 1.87164 19.4756 3.57727 19.6576C7.85477 20.1141 12.1451 20.1141 16.4227 19.6576C18.1285 19.4756 19.4756 18.1284 19.6576 16.4226C20.1141 12.1451 20.1141 7.85492 19.6576 3.57727Z" fill="white"/>
<path d="M18.5699 4.3007C18.4085 2.78719 17.2131 1.59166 15.6994 1.43007C11.9037 1.0251 8.0966 1.0251 4.30083 1.43007C2.78731 1.59166 1.59178 2.78719 1.43019 4.3007C1.02522 8.09648 1.02522 11.9035 1.43019 15.6992C1.59178 17.2128 2.78731 18.4084 4.30083 18.5698C8.0966 18.9749 11.9037 18.9749 15.6993 18.5698C17.213 18.4084 18.4085 17.2128 18.5699 15.6992C18.9751 11.9035 18.9751 8.09648 18.5699 4.3007Z" fill="white"/>
<path d="M0.299805 16.0079C0.313538 16.1462 0.327728 16.2844 0.342529 16.4227C0.524567 18.1283 1.87177 19.4755 3.57755 19.6575C7.85504 20.1141 12.1454 20.1141 16.4229 19.6575C18.1286 19.4755 19.4757 18.1283 19.6577 16.4227C19.6725 16.2844 19.6867 16.1462 19.7006 16.0079H0.299805Z" fill="white"/>
<path d="M19.6575 16.4226C19.9029 14.1242 20.0161 11.8221 19.9978 9.52033L15.4262 4.94879C14.8551 4.29679 14.0209 3.88983 13.0407 3.85459C11.0248 3.78195 9.00259 3.78562 6.98645 3.85489C5.31195 3.91257 4.14099 5.03806 3.8407 6.69226C3.78775 6.98432 3.75601 7.28018 3.71436 7.57437V12.4239C3.7374 12.5811 3.77127 12.7375 3.7818 12.8956C3.84894 13.9017 4.26245 14.7636 4.92453 15.3466L9.57663 19.9985C11.8597 20.0146 14.1428 19.901 16.4226 19.6577C18.1284 19.4756 19.4755 18.1284 19.6575 16.4226Z" fill="white"/>
<path d="M3.71436 7.57437C3.75601 7.28018 3.78775 6.98432 3.8407 6.69226C4.14084 5.03806 5.31195 3.91257 6.98645 3.85489C9.00259 3.78562 11.0248 3.78195 13.0407 3.85459C14.8632 3.9202 16.1831 5.26969 16.24 7.09281C16.3006 9.02869 16.3006 10.9693 16.24 12.9052C16.1831 14.7283 14.8636 16.0776 13.0408 16.1434C11.025 16.2162 9.00229 16.218 6.9866 16.1423C5.16379 16.0738 3.90372 14.7213 3.7818 12.8954C3.77127 12.7375 3.7374 12.5809 3.71436 12.4238C3.71436 10.8073 3.71436 9.19074 3.71436 7.57437ZM10.0016 15.0629C10.9241 15.0629 11.8476 15.0905 12.7689 15.0565C14.2135 15.003 15.102 14.1408 15.1357 12.6977C15.1775 10.8994 15.1775 9.09873 15.1357 7.30033C15.102 5.85746 14.2129 4.97519 12.7689 4.94452C10.9362 4.90576 9.10147 4.90607 7.26874 4.94452C5.83578 4.97458 4.94467 5.83899 4.90576 7.26599C4.85632 9.08698 4.85632 10.9112 4.90576 12.7322C4.94467 14.159 5.83578 15.0034 7.26889 15.0565C8.17862 15.0904 9.09064 15.0629 10.0016 15.0629Z" fill="#151617"/>
<path d="M3.71436 7.57437C3.75601 7.28018 3.78775 6.98432 3.8407 6.69226C4.14084 5.03806 5.31195 3.91257 6.98645 3.85489C9.00259 3.78562 11.0248 3.78195 13.0407 3.85459C14.8632 3.9202 16.1831 5.26969 16.24 7.09281C16.3006 9.02869 16.3006 10.9693 16.24 12.9052C16.1831 14.7283 14.8636 16.0776 13.0408 16.1434C11.025 16.2162 9.00229 16.218 6.9866 16.1423C5.16379 16.0738 3.90372 14.7213 3.7818 12.8954C3.77127 12.7375 3.7374 12.5809 3.71436 12.4238C3.71436 10.8073 3.71436 9.19074 3.71436 7.57437ZM10.0016 15.0629C10.9241 15.0629 11.8476 15.0905 12.7689 15.0565C14.2135 15.003 15.102 14.1408 15.1357 12.6977C15.1775 10.8994 15.1775 9.09873 15.1357 7.30033C15.102 5.85746 14.2129 4.97519 12.7689 4.94452C10.9362 4.90576 9.10147 4.90607 7.26874 4.94452C5.83578 4.97458 4.94467 5.83899 4.90576 7.26599C4.85632 9.08698 4.85632 10.9112 4.90576 12.7322C4.94467 14.159 5.83578 15.0034 7.26889 15.0565C8.17862 15.0904 9.09064 15.0629 10.0016 15.0629Z" fill="#7EB6FF"/>
<path d="M9.99982 6.79675C8.23071 6.79675 6.79639 8.23093 6.79639 10C6.79639 11.7693 8.23071 13.2035 9.99982 13.2035C11.7691 13.2035 13.2032 11.7693 13.2032 10C13.2032 8.23093 11.7691 6.79675 9.99982 6.79675ZM9.99982 12.1006C8.83969 12.1006 7.89929 11.1602 7.89929 10C7.89929 8.8399 8.83969 7.89951 9.99982 7.89951C11.1599 7.89951 12.1003 8.8399 12.1003 10C12.1003 11.1602 11.1599 12.1006 9.99982 12.1006Z" fill="#7EB6FF"/>
<path d="M14.1521 6.6506C14.1521 7.07144 13.8109 7.41263 13.3901 7.41263C12.9693 7.41263 12.6279 7.07144 12.6279 6.6506C12.6279 6.22961 12.9693 5.88843 13.3901 5.88843C13.8109 5.88843 14.1521 6.22961 14.1521 6.6506Z" fill="#7EB6FF"/>
</g>
</svg>
