<svg width="18" height="25" viewBox="0 0 18 25" fill="none" xmlns="http://www.w3.org/2000/svg">
<path d="M8.95105 0C4.01541 0 0 4.01541 0 8.951C0 15.0762 8.01031 24.0684 8.35136 24.4482C8.6717 24.805 9.23098 24.8044 9.55074 24.4482C9.89179 24.0684 17.9021 15.0762 17.9021 8.951C17.902 4.01541 13.8866 0 8.95105 0ZM8.95105 13.4545C6.46781 13.4545 4.4476 11.4342 4.4476 8.951C4.4476 6.46776 6.46786 4.44755 8.95105 4.44755C11.4342 4.44755 13.4545 6.46781 13.4545 8.95105C13.4545 11.4343 11.4342 13.4545 8.95105 13.4545Z" fill="white"/>
</svg>
